<?xml version="1.0" encoding="utf-8" standalone="no"?>
<!DOCTYPE svg PUBLIC "-//W3C//DTD SVG 1.1//EN"
  "http://www.w3.org/Graphics/SVG/1.1/DTD/svg11.dtd">
<svg xmlns:xlink="http://www.w3.org/1999/xlink" width="806.4pt" height="561.6pt" viewBox="0 0 806.4 561.6" xmlns="http://www.w3.org/2000/svg" version="1.1" role="img" aria-labelledby="kalman-tuning-title kalman-tuning-desc">
  <title id="kalman-tuning-title">예측과 보정을 구분하고 잘못된 Q와 R의 혁신을 비교한다</title>
  <desc id="kalman-tuning-desc">위 그래프는 합성 이동 궤적, 잡음 측정, 측정 직전 예측, 측정 후 추정을 보여 준다. 아래 그래프는 같은 자료에서 기준 설정, 너무 작은 과정 잡음 Q, 너무 작은 측정 잡음 R의 정규화 혁신을 비교하며 플러스 마이너스 3 기준선을 표시한다.</desc>
 <metadata>
  <rdf:RDF xmlns:dc="http://purl.org/dc/elements/1.1/" xmlns:cc="http://creativecommons.org/ns#" xmlns:rdf="http://www.w3.org/1999/02/22-rdf-syntax-ns#">
   <cc:Work>
    <dc:type rdf:resource="http://purl.org/dc/dcmitype/StillImage"/>
    <dc:format>image/svg+xml</dc:format>
    <dc:creator>
     <cc:Agent>
      <dc:title>Robotics Math Atlas deterministic generator</dc:title>
     </cc:Agent>
    </dc:creator>
   </cc:Work>
  </rdf:RDF>
 </metadata>
 <defs>
  <style type="text/css">*{stroke-linejoin: round; stroke-linecap: butt}</style>
 </defs>
 <g id="figure_1">
  <g id="patch_1">
   <path d="M 0 561.6
L 806.4 561.6
L 806.4 0
L 0 0
z
" style="fill: #fbfcfe"/>
  </g>
  <g id="axes_1">
   <g id="patch_2">
    <path d="M 72.576 270.390527
L 790.272 270.390527
L 790.272 50.544
L 72.576 50.544
z
" style="fill: #fbfcfe"/>
   </g>
   <g id="matplotlib.axis_1">
    <g id="xtick_1">
     <g id="line2d_1">
      <path d="M 105.198545 270.390527
L 105.198545 50.544
" clip-path="url(#p8f2026559a)" style="fill: none; stroke: #d7dfeb; stroke-opacity: 0.9; stroke-width: 0.8; stroke-linecap: square"/>
     </g>
     <g id="line2d_2">
      <defs>
       <path id="m2db63e21bb" d="M 0 0
L 0 3.5
" style="stroke: #000000; stroke-width: 0.8"/>
      </defs>
      <g>
       <use xlink:href="#m2db63e21bb" x="105.198545" y="270.390527" style="stroke: #000000; stroke-width: 0.8"/>
      </g>
     </g>
    </g>
    <g id="xtick_2">
     <g id="line2d_3">
      <path d="M 213.940364 270.390527
L 213.940364 50.544
" clip-path="url(#p8f2026559a)" style="fill: none; stroke: #d7dfeb; stroke-opacity: 0.9; stroke-width: 0.8; stroke-linecap: square"/>
     </g>
     <g id="line2d_4">
      <g>
       <use xlink:href="#m2db63e21bb" x="213.940364" y="270.390527" style="stroke: #000000; stroke-width: 0.8"/>
      </g>
     </g>
    </g>
    <g id="xtick_3">
     <g id="line2d_5">
      <path d="M 322.682182 270.390527
L 322.682182 50.544
" clip-path="url(#p8f2026559a)" style="fill: none; stroke: #d7dfeb; stroke-opacity: 0.9; stroke-width: 0.8; stroke-linecap: square"/>
     </g>
     <g id="line2d_6">
      <g>
       <use xlink:href="#m2db63e21bb" x="322.682182" y="270.390527" style="stroke: #000000; stroke-width: 0.8"/>
      </g>
     </g>
    </g>
    <g id="xtick_4">
     <g id="line2d_7">
      <path d="M 431.424 270.390527
L 431.424 50.544
" clip-path="url(#p8f2026559a)" style="fill: none; stroke: #d7dfeb; stroke-opacity: 0.9; stroke-width: 0.8; stroke-linecap: square"/>
     </g>
     <g id="line2d_8">
      <g>
       <use xlink:href="#m2db63e21bb" x="431.424" y="270.390527" style="stroke: #000000; stroke-width: 0.8"/>
      </g>
     </g>
    </g>
    <g id="xtick_5">
     <g id="line2d_9">
      <path d="M 540.165818 270.390527
L 540.165818 50.544
" clip-path="url(#p8f2026559a)" style="fill: none; stroke: #d7dfeb; stroke-opacity: 0.9; stroke-width: 0.8; stroke-linecap: square"/>
     </g>
     <g id="line2d_10">
      <g>
       <use xlink:href="#m2db63e21bb" x="540.165818" y="270.390527" style="stroke: #000000; stroke-width: 0.8"/>
      </g>
     </g>
    </g>
    <g id="xtick_6">
     <g id="line2d_11">
      <path d="M 648.907636 270.390527
L 648.907636 50.544
" clip-path="url(#p8f2026559a)" style="fill: none; stroke: #d7dfeb; stroke-opacity: 0.9; stroke-width: 0.8; stroke-linecap: square"/>
     </g>
     <g id="line2d_12">
      <g>
       <use xlink:href="#m2db63e21bb" x="648.907636" y="270.390527" style="stroke: #000000; stroke-width: 0.8"/>
      </g>
     </g>
    </g>
    <g id="xtick_7">
     <g id="line2d_13">
      <path d="M 757.649455 270.390527
L 757.649455 50.544
" clip-path="url(#p8f2026559a)" style="fill: none; stroke: #d7dfeb; stroke-opacity: 0.9; stroke-width: 0.8; stroke-linecap: square"/>
     </g>
     <g id="line2d_14">
      <g>
       <use xlink:href="#m2db63e21bb" x="757.649455" y="270.390527" style="stroke: #000000; stroke-width: 0.8"/>
      </g>
     </g>
    </g>
   </g>
   <g id="matplotlib.axis_2">
    <g id="ytick_1">
     <g id="line2d_15">
      <path d="M 72.576 244.916575
L 790.272 244.916575
" clip-path="url(#p8f2026559a)" style="fill: none; stroke: #d7dfeb; stroke-opacity: 0.9; stroke-width: 0.8; stroke-linecap: square"/>
     </g>
     <g id="line2d_16">
      <defs>
       <path id="m6903b687be" d="M 0 0
L -3.5 0
" style="stroke: #000000; stroke-width: 0.8"/>
      </defs>
      <g>
       <use xlink:href="#m6903b687be" x="72.576" y="244.916575" style="stroke: #000000; stroke-width: 0.8"/>
      </g>
     </g>
     <g id="text_1">
      <text style="font-size: 10px; font-family: 'Atlas Sans KR'; text-anchor: end" x="65.576" y="249.316575" transform="rotate(-0 65.576 249.316575)">0</text>
     </g>
    </g>
    <g id="ytick_2">
     <g id="line2d_17">
      <path d="M 72.576 211.459542
L 790.272 211.459542
" clip-path="url(#p8f2026559a)" style="fill: none; stroke: #d7dfeb; stroke-opacity: 0.9; stroke-width: 0.8; stroke-linecap: square"/>
     </g>
     <g id="line2d_18">
      <g>
       <use xlink:href="#m6903b687be" x="72.576" y="211.459542" style="stroke: #000000; stroke-width: 0.8"/>
      </g>
     </g>
     <g id="text_2">
      <text style="font-size: 10px; font-family: 'Atlas Sans KR'; text-anchor: end" x="65.576" y="215.859542" transform="rotate(-0 65.576 215.859542)">2</text>
     </g>
    </g>
    <g id="ytick_3">
     <g id="line2d_19">
      <path d="M 72.576 178.002509
L 790.272 178.002509
" clip-path="url(#p8f2026559a)" style="fill: none; stroke: #d7dfeb; stroke-opacity: 0.9; stroke-width: 0.8; stroke-linecap: square"/>
     </g>
     <g id="line2d_20">
      <g>
       <use xlink:href="#m6903b687be" x="72.576" y="178.002509" style="stroke: #000000; stroke-width: 0.8"/>
      </g>
     </g>
     <g id="text_3">
      <text style="font-size: 10px; font-family: 'Atlas Sans KR'; text-anchor: end" x="65.576" y="182.402509" transform="rotate(-0 65.576 182.402509)">4</text>
     </g>
    </g>
    <g id="ytick_4">
     <g id="line2d_21">
      <path d="M 72.576 144.545475
L 790.272 144.545475
" clip-path="url(#p8f2026559a)" style="fill: none; stroke: #d7dfeb; stroke-opacity: 0.9; stroke-width: 0.8; stroke-linecap: square"/>
     </g>
     <g id="line2d_22">
      <g>
       <use xlink:href="#m6903b687be" x="72.576" y="144.545475" style="stroke: #000000; stroke-width: 0.8"/>
      </g>
     </g>
     <g id="text_4">
      <text style="font-size: 10px; font-family: 'Atlas Sans KR'; text-anchor: end" x="65.576" y="148.945475" transform="rotate(-0 65.576 148.945475)">6</text>
     </g>
    </g>
    <g id="ytick_5">
     <g id="line2d_23">
      <path d="M 72.576 111.088442
L 790.272 111.088442
" clip-path="url(#p8f2026559a)" style="fill: none; stroke: #d7dfeb; stroke-opacity: 0.9; stroke-width: 0.8; stroke-linecap: square"/>
     </g>
     <g id="line2d_24">
      <g>
       <use xlink:href="#m6903b687be" x="72.576" y="111.088442" style="stroke: #000000; stroke-width: 0.8"/>
      </g>
     </g>
     <g id="text_5">
      <text style="font-size: 10px; font-family: 'Atlas Sans KR'; text-anchor: end" x="65.576" y="115.488442" transform="rotate(-0 65.576 115.488442)">8</text>
     </g>
    </g>
    <g id="ytick_6">
     <g id="line2d_25">
      <path d="M 72.576 77.631409
L 790.272 77.631409
" clip-path="url(#p8f2026559a)" style="fill: none; stroke: #d7dfeb; stroke-opacity: 0.9; stroke-width: 0.8; stroke-linecap: square"/>
     </g>
     <g id="line2d_26">
      <g>
       <use xlink:href="#m6903b687be" x="72.576" y="77.631409" style="stroke: #000000; stroke-width: 0.8"/>
      </g>
     </g>
     <g id="text_6">
      <text style="font-size: 10px; font-family: 'Atlas Sans KR'; text-anchor: end" x="65.576" y="82.031409" transform="rotate(-0 65.576 82.031409)">10</text>
     </g>
    </g>
    <g id="text_7">
     <text style="font-size: 10px; font-family: 'Atlas Sans KR'; text-anchor: middle" x="48.516625" y="160.467263" transform="rotate(-90 48.516625 160.467263)">위치 (m)</text>
    </g>
   </g>
   <g id="line2d_27">
    <path d="M 105.198545 244.916575
L 110.635636 244.916575
L 116.072727 244.916575
L 121.509818 244.916575
L 126.946909 244.916575
L 132.384 244.916575
L 137.821091 244.916575
L 143.258182 244.916575
L 148.695273 244.916575
L 154.132364 244.916575
L 159.569455 244.916575
L 165.006545 244.916575
L 170.443636 244.916575
L 175.880727 244.916575
L 181.317818 244.916575
L 186.754909 244.916575
L 192.192 244.916575
L 197.629091 244.916575
L 203.066182 244.916575
L 208.503273 244.916575
L 213.940364 244.916575
L 219.377455 244.916575
L 224.814545 244.916575
L 230.251636 244.916575
L 235.688727 244.916575
L 241.125818 244.916575
L 246.562909 244.916575
L 252 244.916575
L 257.437091 244.916575
L 262.874182 244.916575
L 268.311273 244.916575
L 273.748364 244.849661
L 279.185455 244.648919
L 284.622545 244.314349
L 290.059636 243.84595
L 295.496727 243.243724
L 300.933818 242.507669
L 306.370909 241.637786
L 311.808 240.634075
L 317.245091 239.496536
L 322.682182 238.225169
L 328.119273 236.819973
L 333.556364 235.28095
L 338.993455 233.608098
L 344.430545 231.801418
L 349.867636 229.86091
L 355.304727 227.786574
L 360.741818 225.57841
L 366.178909 223.236418
L 371.616 220.760597
L 377.053091 218.150949
L 382.490182 215.474386
L 387.927273 212.797823
L 393.364364 210.121261
L 398.801455 207.444698
L 404.238545 204.768135
L 409.675636 202.091573
L 415.112727 199.41501
L 420.549818 196.738447
L 425.986909 194.061885
L 431.424 191.385322
L 436.861091 188.708759
L 442.298182 186.032197
L 447.735273 183.355634
L 453.172364 180.679071
L 458.609455 178.002509
L 464.046545 175.325946
L 469.483636 172.649383
L 474.920727 169.972821
L 480.357818 167.296258
L 485.794909 164.619695
L 491.232 161.943133
L 496.669091 159.26657
L 502.106182 156.590007
L 507.543273 153.913445
L 512.980364 151.236882
L 518.417455 148.560319
L 523.854545 145.883757
L 529.291636 143.207194
L 534.728727 140.530631
L 540.165818 137.854069
L 545.602909 135.227692
L 551.04 132.701686
L 556.477091 130.276051
L 561.914182 127.950787
L 567.351273 125.725894
L 572.788364 123.601372
L 578.225455 121.577222
L 583.662545 119.653443
L 589.099636 117.830034
L 594.536727 116.106997
L 599.973818 114.434145
L 605.410909 112.761294
L 610.848 111.088442
L 616.285091 109.41559
L 621.722182 107.742739
L 627.159273 106.069887
L 632.596364 104.397035
L 638.033455 102.724184
L 643.470545 101.051332
L 648.907636 99.37848
L 654.344727 97.705629
L 659.781818 96.032777
L 665.218909 94.359925
L 670.656 92.687074
L 676.093091 91.014222
L 681.530182 89.34137
L 686.967273 87.668519
L 692.404364 85.995667
L 697.841455 84.322815
L 703.278545 82.649964
L 708.715636 80.977112
L 714.152727 79.30426
L 719.589818 77.631409
L 725.026909 75.958557
L 730.464 74.285705
L 735.901091 72.612854
L 741.338182 70.940002
L 746.775273 69.26715
L 752.212364 67.594299
L 757.649455 65.921447
" clip-path="url(#p8f2026559a)" style="fill: none; stroke: #172033; stroke-width: 2.6; stroke-linecap: square"/>
   </g>
   <g id="PathCollection_1">
    <defs>
     <path id="m0ee202ede8" d="M 0 2.12132
C 0.562581 2.12132 1.102195 1.897805 1.5 1.5
C 1.897805 1.102195 2.12132 0.562581 2.12132 0
C 2.12132 -0.562581 1.897805 -1.102195 1.5 -1.5
C 1.102195 -1.897805 0.562581 -2.12132 0 -2.12132
C -0.562581 -2.12132 -1.102195 -1.897805 -1.5 -1.5
C -1.897805 -1.102195 -2.12132 -0.562581 -2.12132 0
C -2.12132 0.562581 -1.897805 1.102195 -1.5 1.5
C -1.102195 1.897805 -0.562581 2.12132 0 2.12132
z
" style="stroke: #6d778a; stroke-opacity: 0.62"/>
    </defs>
    <g clip-path="url(#p8f2026559a)">
     <use xlink:href="#m0ee202ede8" x="105.198545" y="256.291465" style="fill: #6d778a; fill-opacity: 0.62; stroke: #6d778a; stroke-opacity: 0.62"/>
     <use xlink:href="#m0ee202ede8" x="116.072727" y="241.98149" style="fill: #6d778a; fill-opacity: 0.62; stroke: #6d778a; stroke-opacity: 0.62"/>
     <use xlink:href="#m0ee202ede8" x="126.946909" y="233.430593" style="fill: #6d778a; fill-opacity: 0.62; stroke: #6d778a; stroke-opacity: 0.62"/>
     <use xlink:href="#m0ee202ede8" x="137.821091" y="245.615469" style="fill: #6d778a; fill-opacity: 0.62; stroke: #6d778a; stroke-opacity: 0.62"/>
     <use xlink:href="#m0ee202ede8" x="148.695273" y="244.835478" style="fill: #6d778a; fill-opacity: 0.62; stroke: #6d778a; stroke-opacity: 0.62"/>
     <use xlink:href="#m0ee202ede8" x="159.569455" y="260.397503" style="fill: #6d778a; fill-opacity: 0.62; stroke: #6d778a; stroke-opacity: 0.62"/>
     <use xlink:href="#m0ee202ede8" x="170.443636" y="244.703854" style="fill: #6d778a; fill-opacity: 0.62; stroke: #6d778a; stroke-opacity: 0.62"/>
     <use xlink:href="#m0ee202ede8" x="181.317818" y="247.599691" style="fill: #6d778a; fill-opacity: 0.62; stroke: #6d778a; stroke-opacity: 0.62"/>
     <use xlink:href="#m0ee202ede8" x="192.192" y="246.44301" style="fill: #6d778a; fill-opacity: 0.62; stroke: #6d778a; stroke-opacity: 0.62"/>
     <use xlink:href="#m0ee202ede8" x="203.066182" y="240.382398" style="fill: #6d778a; fill-opacity: 0.62; stroke: #6d778a; stroke-opacity: 0.62"/>
     <use xlink:href="#m0ee202ede8" x="213.940364" y="255.643564" style="fill: #6d778a; fill-opacity: 0.62; stroke: #6d778a; stroke-opacity: 0.62"/>
     <use xlink:href="#m0ee202ede8" x="224.814545" y="255.671428" style="fill: #6d778a; fill-opacity: 0.62; stroke: #6d778a; stroke-opacity: 0.62"/>
     <use xlink:href="#m0ee202ede8" x="235.688727" y="242.702135" style="fill: #6d778a; fill-opacity: 0.62; stroke: #6d778a; stroke-opacity: 0.62"/>
     <use xlink:href="#m0ee202ede8" x="246.562909" y="233.500802" style="fill: #6d778a; fill-opacity: 0.62; stroke: #6d778a; stroke-opacity: 0.62"/>
     <use xlink:href="#m0ee202ede8" x="257.437091" y="248.368031" style="fill: #6d778a; fill-opacity: 0.62; stroke: #6d778a; stroke-opacity: 0.62"/>
     <use xlink:href="#m0ee202ede8" x="268.311273" y="240.358153" style="fill: #6d778a; fill-opacity: 0.62; stroke: #6d778a; stroke-opacity: 0.62"/>
     <use xlink:href="#m0ee202ede8" x="279.185455" y="242.454212" style="fill: #6d778a; fill-opacity: 0.62; stroke: #6d778a; stroke-opacity: 0.62"/>
     <use xlink:href="#m0ee202ede8" x="290.059636" y="249.21138" style="fill: #6d778a; fill-opacity: 0.62; stroke: #6d778a; stroke-opacity: 0.62"/>
     <use xlink:href="#m0ee202ede8" x="300.933818" y="234.583838" style="fill: #6d778a; fill-opacity: 0.62; stroke: #6d778a; stroke-opacity: 0.62"/>
     <use xlink:href="#m0ee202ede8" x="311.808" y="252.445454" style="fill: #6d778a; fill-opacity: 0.62; stroke: #6d778a; stroke-opacity: 0.62"/>
     <use xlink:href="#m0ee202ede8" x="322.682182" y="242.600286" style="fill: #6d778a; fill-opacity: 0.62; stroke: #6d778a; stroke-opacity: 0.62"/>
     <use xlink:href="#m0ee202ede8" x="333.556364" y="218.747395" style="fill: #6d778a; fill-opacity: 0.62; stroke: #6d778a; stroke-opacity: 0.62"/>
     <use xlink:href="#m0ee202ede8" x="344.430545" y="234.831654" style="fill: #6d778a; fill-opacity: 0.62; stroke: #6d778a; stroke-opacity: 0.62"/>
     <use xlink:href="#m0ee202ede8" x="355.304727" y="235.155674" style="fill: #6d778a; fill-opacity: 0.62; stroke: #6d778a; stroke-opacity: 0.62"/>
     <use xlink:href="#m0ee202ede8" x="366.178909" y="222.480744" style="fill: #6d778a; fill-opacity: 0.62; stroke: #6d778a; stroke-opacity: 0.62"/>
     <use xlink:href="#m0ee202ede8" x="377.053091" y="226.526725" style="fill: #6d778a; fill-opacity: 0.62; stroke: #6d778a; stroke-opacity: 0.62"/>
     <use xlink:href="#m0ee202ede8" x="387.927273" y="227.129734" style="fill: #6d778a; fill-opacity: 0.62; stroke: #6d778a; stroke-opacity: 0.62"/>
     <use xlink:href="#m0ee202ede8" x="398.801455" y="209.601013" style="fill: #6d778a; fill-opacity: 0.62; stroke: #6d778a; stroke-opacity: 0.62"/>
     <use xlink:href="#m0ee202ede8" x="409.675636" y="193.180556" style="fill: #6d778a; fill-opacity: 0.62; stroke: #6d778a; stroke-opacity: 0.62"/>
     <use xlink:href="#m0ee202ede8" x="420.549818" y="201.489268" style="fill: #6d778a; fill-opacity: 0.62; stroke: #6d778a; stroke-opacity: 0.62"/>
     <use xlink:href="#m0ee202ede8" x="431.424" y="189.375989" style="fill: #6d778a; fill-opacity: 0.62; stroke: #6d778a; stroke-opacity: 0.62"/>
     <use xlink:href="#m0ee202ede8" x="442.298182" y="179.472626" style="fill: #6d778a; fill-opacity: 0.62; stroke: #6d778a; stroke-opacity: 0.62"/>
     <use xlink:href="#m0ee202ede8" x="453.172364" y="186.524821" style="fill: #6d778a; fill-opacity: 0.62; stroke: #6d778a; stroke-opacity: 0.62"/>
     <use xlink:href="#m0ee202ede8" x="464.046545" y="176.274141" style="fill: #6d778a; fill-opacity: 0.62; stroke: #6d778a; stroke-opacity: 0.62"/>
     <use xlink:href="#m0ee202ede8" x="474.920727" y="169.313339" style="fill: #6d778a; fill-opacity: 0.62; stroke: #6d778a; stroke-opacity: 0.62"/>
     <use xlink:href="#m0ee202ede8" x="485.794909" y="178.787389" style="fill: #6d778a; fill-opacity: 0.62; stroke: #6d778a; stroke-opacity: 0.62"/>
     <use xlink:href="#m0ee202ede8" x="496.669091" y="160.52419" style="fill: #6d778a; fill-opacity: 0.62; stroke: #6d778a; stroke-opacity: 0.62"/>
     <use xlink:href="#m0ee202ede8" x="507.543273" y="160.794167" style="fill: #6d778a; fill-opacity: 0.62; stroke: #6d778a; stroke-opacity: 0.62"/>
     <use xlink:href="#m0ee202ede8" x="518.417455" y="137.445399" style="fill: #6d778a; fill-opacity: 0.62; stroke: #6d778a; stroke-opacity: 0.62"/>
     <use xlink:href="#m0ee202ede8" x="529.291636" y="145.767119" style="fill: #6d778a; fill-opacity: 0.62; stroke: #6d778a; stroke-opacity: 0.62"/>
     <use xlink:href="#m0ee202ede8" x="540.165818" y="133.268094" style="fill: #6d778a; fill-opacity: 0.62; stroke: #6d778a; stroke-opacity: 0.62"/>
     <use xlink:href="#m0ee202ede8" x="551.04" y="116.844022" style="fill: #6d778a; fill-opacity: 0.62; stroke: #6d778a; stroke-opacity: 0.62"/>
     <use xlink:href="#m0ee202ede8" x="561.914182" y="116.958039" style="fill: #6d778a; fill-opacity: 0.62; stroke: #6d778a; stroke-opacity: 0.62"/>
     <use xlink:href="#m0ee202ede8" x="572.788364" y="122.672032" style="fill: #6d778a; fill-opacity: 0.62; stroke: #6d778a; stroke-opacity: 0.62"/>
     <use xlink:href="#m0ee202ede8" x="583.662545" y="119.121542" style="fill: #6d778a; fill-opacity: 0.62; stroke: #6d778a; stroke-opacity: 0.62"/>
     <use xlink:href="#m0ee202ede8" x="594.536727" y="109.910959" style="fill: #6d778a; fill-opacity: 0.62; stroke: #6d778a; stroke-opacity: 0.62"/>
     <use xlink:href="#m0ee202ede8" x="605.410909" y="105.287696" style="fill: #6d778a; fill-opacity: 0.62; stroke: #6d778a; stroke-opacity: 0.62"/>
     <use xlink:href="#m0ee202ede8" x="616.285091" y="103.661981" style="fill: #6d778a; fill-opacity: 0.62; stroke: #6d778a; stroke-opacity: 0.62"/>
     <use xlink:href="#m0ee202ede8" x="627.159273" y="107.309023" style="fill: #6d778a; fill-opacity: 0.62; stroke: #6d778a; stroke-opacity: 0.62"/>
     <use xlink:href="#m0ee202ede8" x="638.033455" y="94.405517" style="fill: #6d778a; fill-opacity: 0.62; stroke: #6d778a; stroke-opacity: 0.62"/>
     <use xlink:href="#m0ee202ede8" x="648.907636" y="93.678834" style="fill: #6d778a; fill-opacity: 0.62; stroke: #6d778a; stroke-opacity: 0.62"/>
     <use xlink:href="#m0ee202ede8" x="659.781818" y="105.286774" style="fill: #6d778a; fill-opacity: 0.62; stroke: #6d778a; stroke-opacity: 0.62"/>
     <use xlink:href="#m0ee202ede8" x="670.656" y="84.897998" style="fill: #6d778a; fill-opacity: 0.62; stroke: #6d778a; stroke-opacity: 0.62"/>
     <use xlink:href="#m0ee202ede8" x="681.530182" y="91.677083" style="fill: #6d778a; fill-opacity: 0.62; stroke: #6d778a; stroke-opacity: 0.62"/>
     <use xlink:href="#m0ee202ede8" x="692.404364" y="88.734086" style="fill: #6d778a; fill-opacity: 0.62; stroke: #6d778a; stroke-opacity: 0.62"/>
     <use xlink:href="#m0ee202ede8" x="703.278545" y="75.323176" style="fill: #6d778a; fill-opacity: 0.62; stroke: #6d778a; stroke-opacity: 0.62"/>
     <use xlink:href="#m0ee202ede8" x="714.152727" y="86.678329" style="fill: #6d778a; fill-opacity: 0.62; stroke: #6d778a; stroke-opacity: 0.62"/>
     <use xlink:href="#m0ee202ede8" x="725.026909" y="87.052123" style="fill: #6d778a; fill-opacity: 0.62; stroke: #6d778a; stroke-opacity: 0.62"/>
     <use xlink:href="#m0ee202ede8" x="735.901091" y="83.078367" style="fill: #6d778a; fill-opacity: 0.62; stroke: #6d778a; stroke-opacity: 0.62"/>
     <use xlink:href="#m0ee202ede8" x="746.775273" y="66.387811" style="fill: #6d778a; fill-opacity: 0.62; stroke: #6d778a; stroke-opacity: 0.62"/>
     <use xlink:href="#m0ee202ede8" x="757.649455" y="60.537024" style="fill: #6d778a; fill-opacity: 0.62; stroke: #6d778a; stroke-opacity: 0.62"/>
    </g>
   </g>
   <g id="line2d_28">
    <path d="M 105.198545 244.916575
L 110.635636 254.016487
L 116.072727 246.358285
L 121.509818 244.631188
L 126.946909 241.248989
L 132.384 238.28489
L 137.821091 242.37511
L 143.258182 243.18665
L 148.695273 240.892447
L 154.132364 241.760355
L 159.569455 241.80571
L 165.006545 247.260336
L 170.443636 249.080832
L 175.880727 248.51233
L 181.317818 246.230227
L 186.754909 246.822967
L 192.192 246.816509
L 197.629091 246.952932
L 203.066182 248.405364
L 208.503273 246.754268
L 213.940364 249.136258
L 219.377455 251.100671
L 224.814545 249.460734
L 230.251636 251.26769
L 235.688727 248.006341
L 241.125818 246.8208
L 246.562909 243.658776
L 252 240.8646
L 257.437091 241.084349
L 262.874182 242.263448
L 268.311273 240.177417
L 273.748364 239.673474
L 279.185455 238.643439
L 284.622545 238.952144
L 290.059636 239.425468
L 295.496727 241.348423
L 300.933818 242.191289
L 306.370909 240.345338
L 311.808 242.171163
L 317.245091 244.588314
L 322.682182 238.998532
L 328.119273 239.474721
L 333.556364 239.150843
L 338.993455 234.028384
L 344.430545 235.849333
L 349.867636 235.08375
L 355.304727 234.492846
L 360.741818 234.095337
L 366.178909 233.486487
L 371.616 230.335052
L 377.053091 232.331586
L 382.490182 230.434213
L 387.927273 227.745513
L 393.364364 226.716835
L 398.801455 222.337071
L 404.238545 218.053789
L 409.675636 214.454318
L 415.112727 207.6162
L 420.549818 202.31186
L 425.986909 199.467116
L 431.424 196.860495
L 436.861091 192.424437
L 442.298182 188.764149
L 447.735273 183.626509
L 453.172364 180.871738
L 458.609455 179.083557
L 464.046545 174.731262
L 469.483636 171.966775
L 474.920727 171.050375
L 480.357818 167.77864
L 485.794909 159.046784
L 491.232 160.198931
L 496.669091 159.5871
L 502.106182 157.03868
L 507.543273 153.39899
L 512.980364 152.308582
L 518.417455 150.689413
L 523.854545 145.007604
L 529.291636 143.396322
L 534.728727 141.213663
L 540.165818 139.74342
L 545.602909 135.654448
L 551.04 133.347523
L 556.477091 126.765045
L 561.914182 124.008808
L 567.351273 119.285453
L 572.788364 115.823785
L 578.225455 114.189971
L 583.662545 113.011911
L 589.099636 111.57726
L 594.536727 108.410142
L 599.973818 105.991039
L 605.410909 104.914066
L 610.848 102.441788
L 616.285091 103.257029
L 621.722182 101.158607
L 627.159273 99.125404
L 632.596364 98.895033
L 638.033455 98.067149
L 643.470545 95.35786
L 648.907636 94.848808
L 654.344727 92.788703
L 659.781818 92.536429
L 665.218909 93.908538
L 670.656 93.057698
L 676.093091 89.849294
L 681.530182 87.042139
L 686.967273 86.517777
L 692.404364 86.616098
L 697.841455 85.782249
L 703.278545 84.803623
L 708.715636 81.308818
L 714.152727 81.568332
L 719.589818 81.47559
L 725.026909 79.201448
L 730.464 79.769348
L 735.901091 80.486331
L 741.338182 80.198272
L 746.775273 76.467449
L 752.212364 72.937076
L 757.649455 68.109168
" clip-path="url(#p8f2026559a)" style="fill: none; stroke-dasharray: 7.4,3.2; stroke-dashoffset: 0; stroke: #087f78; stroke-width: 2"/>
   </g>
   <g id="line2d_29">
    <path d="M 105.198545 254.016487
L 110.635636 246.544122
L 116.072727 244.911302
L 121.509818 241.831464
L 126.946909 239.160355
L 132.384 242.57479
L 137.821091 243.244805
L 143.258182 241.260262
L 148.695273 241.962008
L 154.132364 241.975364
L 159.569455 246.729122
L 165.006545 248.394758
L 170.443636 247.972081
L 175.880727 246.008999
L 181.317818 246.560689
L 186.754909 246.583405
L 192.192 246.730188
L 197.629091 248.052041
L 203.066182 246.612568
L 208.503273 248.758789
L 213.940364 250.556411
L 219.377455 249.146034
L 224.814545 250.796028
L 230.251636 247.927819
L 235.688727 246.875589
L 241.125818 244.04171
L 246.562909 241.502492
L 252 241.631463
L 257.437091 242.627697
L 262.874182 240.724174
L 268.311273 240.215691
L 273.748364 239.237401
L 279.185455 239.45034
L 284.622545 239.820587
L 290.059636 241.497595
L 295.496727 242.235209
L 300.933818 240.580437
L 306.370909 242.187629
L 311.808 244.346625
L 317.245091 239.375404
L 322.682182 239.761111
L 328.119273 239.441209
L 333.556364 234.831247
L 338.993455 236.373917
L 344.430545 235.633894
L 349.867636 235.047313
L 355.304727 234.633158
L 360.741818 234.03184
L 366.178909 231.156798
L 371.616 232.854434
L 377.053091 231.102839
L 382.490182 228.628382
L 387.927273 227.615168
L 393.364364 223.604637
L 398.801455 219.641195
L 404.238545 216.255119
L 409.675636 209.951249
L 415.112727 204.961826
L 420.549818 202.13774
L 425.986909 199.524331
L 431.424 195.276231
L 436.861091 191.701691
L 442.298182 186.79739
L 447.735273 183.998487
L 453.172364 182.06834
L 458.609455 177.861081
L 464.046545 175.057847
L 469.483636 173.910805
L 474.920727 170.682692
L 480.357818 162.568923
L 485.794909 163.225324
L 491.232 162.357408
L 496.669091 159.785456
L 502.106182 156.240466
L 507.543273 154.964344
L 512.980364 153.235236
L 518.417455 147.886023
L 523.854545 146.140351
L 529.291636 143.898154
L 534.728727 142.29913
L 540.165818 138.372773
L 545.602909 136.022216
L 551.04 129.85419
L 556.477091 127.062646
L 561.914182 122.516356
L 567.351273 119.079163
L 572.788364 117.273369
L 578.225455 115.893232
L 583.662545 114.30515
L 589.099636 111.184616
L 594.536727 108.727823
L 599.973818 107.474813
L 605.410909 104.993153
L 610.848 105.451338
L 616.285091 103.342746
L 621.722182 101.293535
L 627.159273 100.857649
L 632.596364 99.909418
L 638.033455 97.292083
L 643.470545 96.631881
L 648.907636 94.601157
L 654.344727 94.183413
L 659.781818 95.235323
L 665.218909 94.334005
L 670.656 91.330516
L 676.093091 88.663986
L 681.530182 88.023228
L 686.967273 87.951455
L 692.404364 87.064417
L 697.841455 86.053599
L 703.278545 82.796876
L 708.715636 82.871045
L 714.152727 82.649976
L 719.589818 80.492473
L 725.026909 80.863218
L 730.464 81.388145
L 735.901091 81.034993
L 741.338182 77.611113
L 746.775273 74.33387
L 752.212364 69.869859
L 757.649455 66.506356
" clip-path="url(#p8f2026559a)" style="fill: none; stroke: #1459b8; stroke-width: 2.8; stroke-linecap: square"/>
   </g>
   <g id="patch_3">
    <path d="M 72.576 270.390527
L 72.576 50.544
" style="fill: none; stroke: #5b6578; stroke-width: 0.8; stroke-linejoin: miter; stroke-linecap: square"/>
   </g>
   <g id="patch_4">
    <path d="M 72.576 270.390527
L 790.272 270.390527
" style="fill: none; stroke: #5b6578; stroke-width: 0.8; stroke-linejoin: miter; stroke-linecap: square"/>
   </g>
   <g id="text_8">
    <text style="font-weight: 700; font-size: 12px; font-family: 'Atlas Sans KR'; text-anchor: start" x="72.576" y="44.544" transform="rotate(-0 72.576 44.544)">A · 같은 시각에도 사전 예측과 사후 추정은 다르다</text>
   </g>
   <g id="legend_1">
    <g id="line2d_30">
     <path d="M 81.576 64.844
L 91.576 64.844
L 101.576 64.844
" style="fill: none; stroke: #172033; stroke-width: 2.6; stroke-linecap: square"/>
    </g>
    <g id="text_9">
     <text style="font-size: 10px; font-family: 'Atlas Sans KR'; text-anchor: start" x="109.576" y="68.344" transform="rotate(-0 109.576 68.344)">참 위치</text>
    </g>
    <g id="PathCollection_2">
     <g>
      <use xlink:href="#m0ee202ede8" x="91.576" y="80.719" style="fill: #6d778a; fill-opacity: 0.62; stroke: #6d778a; stroke-opacity: 0.62"/>
     </g>
    </g>
    <g id="text_10">
     <text style="font-size: 10px; font-family: 'Atlas Sans KR'; text-anchor: start" x="109.576" y="83.344" transform="rotate(-0 109.576 83.344)">위치 측정</text>
    </g>
    <g id="line2d_31">
     <path d="M 168.616625 64.844
L 178.616625 64.844
L 188.616625 64.844
" style="fill: none; stroke-dasharray: 7.4,3.2; stroke-dashoffset: 0; stroke: #087f78; stroke-width: 2"/>
    </g>
    <g id="text_11">
     <text style="font-size: 10px; font-family: 'Atlas Sans KR'; text-anchor: start" x="196.616625" y="68.344" transform="rotate(-0 196.616625 68.344)">측정 직전 사전 예측</text>
    </g>
    <g id="line2d_32">
     <path d="M 168.616625 79.844
L 178.616625 79.844
L 188.616625 79.844
" style="fill: none; stroke: #1459b8; stroke-width: 2.8; stroke-linecap: square"/>
    </g>
    <g id="text_12">
     <text style="font-size: 10px; font-family: 'Atlas Sans KR'; text-anchor: start" x="196.616625" y="83.344" transform="rotate(-0 196.616625 83.344)">측정 후 사후 추정</text>
    </g>
   </g>
  </g>
  <g id="axes_2">
   <g id="patch_5">
    <path d="M 72.576 505.44
L 790.272 505.44
L 790.272 319.129384
L 72.576 319.129384
z
" style="fill: #fbfcfe"/>
   </g>
   <g id="FillBetweenPolyCollection_1">
    <defs>
     <path id="mcb3d6d6ce0" d="M 105.198545 -172.604135
L 105.198545 -126.026481
L 110.635636 -126.026481
L 116.072727 -126.026481
L 121.509818 -126.026481
L 126.946909 -126.026481
L 132.384 -126.026481
L 137.821091 -126.026481
L 143.258182 -126.026481
L 148.695273 -126.026481
L 154.132364 -126.026481
L 159.569455 -126.026481
L 165.006545 -126.026481
L 170.443636 -126.026481
L 175.880727 -126.026481
L 181.317818 -126.026481
L 186.754909 -126.026481
L 192.192 -126.026481
L 197.629091 -126.026481
L 203.066182 -126.026481
L 208.503273 -126.026481
L 213.940364 -126.026481
L 219.377455 -126.026481
L 224.814545 -126.026481
L 230.251636 -126.026481
L 235.688727 -126.026481
L 241.125818 -126.026481
L 246.562909 -126.026481
L 252 -126.026481
L 257.437091 -126.026481
L 262.874182 -126.026481
L 268.311273 -126.026481
L 273.748364 -126.026481
L 279.185455 -126.026481
L 284.622545 -126.026481
L 290.059636 -126.026481
L 295.496727 -126.026481
L 300.933818 -126.026481
L 306.370909 -126.026481
L 311.808 -126.026481
L 317.245091 -126.026481
L 322.682182 -126.026481
L 328.119273 -126.026481
L 333.556364 -126.026481
L 338.993455 -126.026481
L 344.430545 -126.026481
L 349.867636 -126.026481
L 355.304727 -126.026481
L 360.741818 -126.026481
L 366.178909 -126.026481
L 371.616 -126.026481
L 377.053091 -126.026481
L 382.490182 -126.026481
L 387.927273 -126.026481
L 393.364364 -126.026481
L 398.801455 -126.026481
L 404.238545 -126.026481
L 409.675636 -126.026481
L 415.112727 -126.026481
L 420.549818 -126.026481
L 425.986909 -126.026481
L 431.424 -126.026481
L 436.861091 -126.026481
L 442.298182 -126.026481
L 447.735273 -126.026481
L 453.172364 -126.026481
L 458.609455 -126.026481
L 464.046545 -126.026481
L 469.483636 -126.026481
L 474.920727 -126.026481
L 480.357818 -126.026481
L 485.794909 -126.026481
L 491.232 -126.026481
L 496.669091 -126.026481
L 502.106182 -126.026481
L 507.543273 -126.026481
L 512.980364 -126.026481
L 518.417455 -126.026481
L 523.854545 -126.026481
L 529.291636 -126.026481
L 534.728727 -126.026481
L 540.165818 -126.026481
L 545.602909 -126.026481
L 551.04 -126.026481
L 556.477091 -126.026481
L 561.914182 -126.026481
L 567.351273 -126.026481
L 572.788364 -126.026481
L 578.225455 -126.026481
L 583.662545 -126.026481
L 589.099636 -126.026481
L 594.536727 -126.026481
L 599.973818 -126.026481
L 605.410909 -126.026481
L 610.848 -126.026481
L 616.285091 -126.026481
L 621.722182 -126.026481
L 627.159273 -126.026481
L 632.596364 -126.026481
L 638.033455 -126.026481
L 643.470545 -126.026481
L 648.907636 -126.026481
L 654.344727 -126.026481
L 659.781818 -126.026481
L 665.218909 -126.026481
L 670.656 -126.026481
L 676.093091 -126.026481
L 681.530182 -126.026481
L 686.967273 -126.026481
L 692.404364 -126.026481
L 697.841455 -126.026481
L 703.278545 -126.026481
L 708.715636 -126.026481
L 714.152727 -126.026481
L 719.589818 -126.026481
L 725.026909 -126.026481
L 730.464 -126.026481
L 735.901091 -126.026481
L 741.338182 -126.026481
L 746.775273 -126.026481
L 752.212364 -126.026481
L 757.649455 -126.026481
L 757.649455 -172.604135
L 757.649455 -172.604135
L 752.212364 -172.604135
L 746.775273 -172.604135
L 741.338182 -172.604135
L 735.901091 -172.604135
L 730.464 -172.604135
L 725.026909 -172.604135
L 719.589818 -172.604135
L 714.152727 -172.604135
L 708.715636 -172.604135
L 703.278545 -172.604135
L 697.841455 -172.604135
L 692.404364 -172.604135
L 686.967273 -172.604135
L 681.530182 -172.604135
L 676.093091 -172.604135
L 670.656 -172.604135
L 665.218909 -172.604135
L 659.781818 -172.604135
L 654.344727 -172.604135
L 648.907636 -172.604135
L 643.470545 -172.604135
L 638.033455 -172.604135
L 632.596364 -172.604135
L 627.159273 -172.604135
L 621.722182 -172.604135
L 616.285091 -172.604135
L 610.848 -172.604135
L 605.410909 -172.604135
L 599.973818 -172.604135
L 594.536727 -172.604135
L 589.099636 -172.604135
L 583.662545 -172.604135
L 578.225455 -172.604135
L 572.788364 -172.604135
L 567.351273 -172.604135
L 561.914182 -172.604135
L 556.477091 -172.604135
L 551.04 -172.604135
L 545.602909 -172.604135
L 540.165818 -172.604135
L 534.728727 -172.604135
L 529.291636 -172.604135
L 523.854545 -172.604135
L 518.417455 -172.604135
L 512.980364 -172.604135
L 507.543273 -172.604135
L 502.106182 -172.604135
L 496.669091 -172.604135
L 491.232 -172.604135
L 485.794909 -172.604135
L 480.357818 -172.604135
L 474.920727 -172.604135
L 469.483636 -172.604135
L 464.046545 -172.604135
L 458.609455 -172.604135
L 453.172364 -172.604135
L 447.735273 -172.604135
L 442.298182 -172.604135
L 436.861091 -172.604135
L 431.424 -172.604135
L 425.986909 -172.604135
L 420.549818 -172.604135
L 415.112727 -172.604135
L 409.675636 -172.604135
L 404.238545 -172.604135
L 398.801455 -172.604135
L 393.364364 -172.604135
L 387.927273 -172.604135
L 382.490182 -172.604135
L 377.053091 -172.604135
L 371.616 -172.604135
L 366.178909 -172.604135
L 360.741818 -172.604135
L 355.304727 -172.604135
L 349.867636 -172.604135
L 344.430545 -172.604135
L 338.993455 -172.604135
L 333.556364 -172.604135
L 328.119273 -172.604135
L 322.682182 -172.604135
L 317.245091 -172.604135
L 311.808 -172.604135
L 306.370909 -172.604135
L 300.933818 -172.604135
L 295.496727 -172.604135
L 290.059636 -172.604135
L 284.622545 -172.604135
L 279.185455 -172.604135
L 273.748364 -172.604135
L 268.311273 -172.604135
L 262.874182 -172.604135
L 257.437091 -172.604135
L 252 -172.604135
L 246.562909 -172.604135
L 241.125818 -172.604135
L 235.688727 -172.604135
L 230.251636 -172.604135
L 224.814545 -172.604135
L 219.377455 -172.604135
L 213.940364 -172.604135
L 208.503273 -172.604135
L 203.066182 -172.604135
L 197.629091 -172.604135
L 192.192 -172.604135
L 186.754909 -172.604135
L 181.317818 -172.604135
L 175.880727 -172.604135
L 170.443636 -172.604135
L 165.006545 -172.604135
L 159.569455 -172.604135
L 154.132364 -172.604135
L 148.695273 -172.604135
L 143.258182 -172.604135
L 137.821091 -172.604135
L 132.384 -172.604135
L 126.946909 -172.604135
L 121.509818 -172.604135
L 116.072727 -172.604135
L 110.635636 -172.604135
L 105.198545 -172.604135
z
" style="stroke: #b8c5d9; stroke-opacity: 0.14"/>
    </defs>
    <g clip-path="url(#p68ba57476f)">
     <use xlink:href="#mcb3d6d6ce0" x="0" y="561.6" style="fill: #b8c5d9; fill-opacity: 0.14; stroke: #b8c5d9; stroke-opacity: 0.14"/>
    </g>
   </g>
   <g id="matplotlib.axis_3">
    <g id="xtick_8">
     <g id="line2d_33">
      <path d="M 105.198545 505.44
L 105.198545 319.129384
" clip-path="url(#p68ba57476f)" style="fill: none; stroke: #d7dfeb; stroke-opacity: 0.9; stroke-width: 0.8; stroke-linecap: square"/>
     </g>
     <g id="line2d_34">
      <g>
       <use xlink:href="#m2db63e21bb" x="105.198545" y="505.44" style="stroke: #000000; stroke-width: 0.8"/>
      </g>
     </g>
     <g id="text_13">
      <text style="font-size: 10px; font-family: 'Atlas Sans KR'; text-anchor: middle" x="105.198545" y="521.24" transform="rotate(-0 105.198545 521.24)">0</text>
     </g>
    </g>
    <g id="xtick_9">
     <g id="line2d_35">
      <path d="M 213.940364 505.44
L 213.940364 319.129384
" clip-path="url(#p68ba57476f)" style="fill: none; stroke: #d7dfeb; stroke-opacity: 0.9; stroke-width: 0.8; stroke-linecap: square"/>
     </g>
     <g id="line2d_36">
      <g>
       <use xlink:href="#m2db63e21bb" x="213.940364" y="505.44" style="stroke: #000000; stroke-width: 0.8"/>
      </g>
     </g>
     <g id="text_14">
      <text style="font-size: 10px; font-family: 'Atlas Sans KR'; text-anchor: middle" x="213.940364" y="521.24" transform="rotate(-0 213.940364 521.24)">2</text>
     </g>
    </g>
    <g id="xtick_10">
     <g id="line2d_37">
      <path d="M 322.682182 505.44
L 322.682182 319.129384
" clip-path="url(#p68ba57476f)" style="fill: none; stroke: #d7dfeb; stroke-opacity: 0.9; stroke-width: 0.8; stroke-linecap: square"/>
     </g>
     <g id="line2d_38">
      <g>
       <use xlink:href="#m2db63e21bb" x="322.682182" y="505.44" style="stroke: #000000; stroke-width: 0.8"/>
      </g>
     </g>
     <g id="text_15">
      <text style="font-size: 10px; font-family: 'Atlas Sans KR'; text-anchor: middle" x="322.682182" y="521.24" transform="rotate(-0 322.682182 521.24)">4</text>
     </g>
    </g>
    <g id="xtick_11">
     <g id="line2d_39">
      <path d="M 431.424 505.44
L 431.424 319.129384
" clip-path="url(#p68ba57476f)" style="fill: none; stroke: #d7dfeb; stroke-opacity: 0.9; stroke-width: 0.8; stroke-linecap: square"/>
     </g>
     <g id="line2d_40">
      <g>
       <use xlink:href="#m2db63e21bb" x="431.424" y="505.44" style="stroke: #000000; stroke-width: 0.8"/>
      </g>
     </g>
     <g id="text_16">
      <text style="font-size: 10px; font-family: 'Atlas Sans KR'; text-anchor: middle" x="431.424" y="521.24" transform="rotate(-0 431.424 521.24)">6</text>
     </g>
    </g>
    <g id="xtick_12">
     <g id="line2d_41">
      <path d="M 540.165818 505.44
L 540.165818 319.129384
" clip-path="url(#p68ba57476f)" style="fill: none; stroke: #d7dfeb; stroke-opacity: 0.9; stroke-width: 0.8; stroke-linecap: square"/>
     </g>
     <g id="line2d_42">
      <g>
       <use xlink:href="#m2db63e21bb" x="540.165818" y="505.44" style="stroke: #000000; stroke-width: 0.8"/>
      </g>
     </g>
     <g id="text_17">
      <text style="font-size: 10px; font-family: 'Atlas Sans KR'; text-anchor: middle" x="540.165818" y="521.24" transform="rotate(-0 540.165818 521.24)">8</text>
     </g>
    </g>
    <g id="xtick_13">
     <g id="line2d_43">
      <path d="M 648.907636 505.44
L 648.907636 319.129384
" clip-path="url(#p68ba57476f)" style="fill: none; stroke: #d7dfeb; stroke-opacity: 0.9; stroke-width: 0.8; stroke-linecap: square"/>
     </g>
     <g id="line2d_44">
      <g>
       <use xlink:href="#m2db63e21bb" x="648.907636" y="505.44" style="stroke: #000000; stroke-width: 0.8"/>
      </g>
     </g>
     <g id="text_18">
      <text style="font-size: 10px; font-family: 'Atlas Sans KR'; text-anchor: middle" x="648.907636" y="521.24" transform="rotate(-0 648.907636 521.24)">10</text>
     </g>
    </g>
    <g id="xtick_14">
     <g id="line2d_45">
      <path d="M 757.649455 505.44
L 757.649455 319.129384
" clip-path="url(#p68ba57476f)" style="fill: none; stroke: #d7dfeb; stroke-opacity: 0.9; stroke-width: 0.8; stroke-linecap: square"/>
     </g>
     <g id="line2d_46">
      <g>
       <use xlink:href="#m2db63e21bb" x="757.649455" y="505.44" style="stroke: #000000; stroke-width: 0.8"/>
      </g>
     </g>
     <g id="text_19">
      <text style="font-size: 10px; font-family: 'Atlas Sans KR'; text-anchor: middle" x="757.649455" y="521.24" transform="rotate(-0 757.649455 521.24)">12</text>
     </g>
    </g>
    <g id="text_20">
     <text style="font-size: 10px; font-family: 'Atlas Sans KR'; text-anchor: middle" x="431.424" y="535.24" transform="rotate(-0 431.424 535.24)">시간 (s)</text>
    </g>
   </g>
   <g id="matplotlib.axis_4">
    <g id="ytick_7">
     <g id="line2d_47">
      <path d="M 72.576 489.914115
L 790.272 489.914115
" clip-path="url(#p68ba57476f)" style="fill: none; stroke: #d7dfeb; stroke-opacity: 0.9; stroke-width: 0.8; stroke-linecap: square"/>
     </g>
     <g id="line2d_48">
      <g>
       <use xlink:href="#m6903b687be" x="72.576" y="489.914115" style="stroke: #000000; stroke-width: 0.8"/>
      </g>
     </g>
     <g id="text_21">
      <text style="font-size: 10px; font-family: 'Atlas Sans KR'; text-anchor: end" x="65.576" y="494.314115" transform="rotate(-0 65.576 494.314115)">-10</text>
     </g>
    </g>
    <g id="ytick_8">
     <g id="line2d_49">
      <path d="M 72.576 451.099404
L 790.272 451.099404
" clip-path="url(#p68ba57476f)" style="fill: none; stroke: #d7dfeb; stroke-opacity: 0.9; stroke-width: 0.8; stroke-linecap: square"/>
     </g>
     <g id="line2d_50">
      <g>
       <use xlink:href="#m6903b687be" x="72.576" y="451.099404" style="stroke: #000000; stroke-width: 0.8"/>
      </g>
     </g>
     <g id="text_22">
      <text style="font-size: 10px; font-family: 'Atlas Sans KR'; text-anchor: end" x="65.576" y="455.499404" transform="rotate(-0 65.576 455.499404)">-5</text>
     </g>
    </g>
    <g id="ytick_9">
     <g id="line2d_51">
      <path d="M 72.576 412.284692
L 790.272 412.284692
" clip-path="url(#p68ba57476f)" style="fill: none; stroke: #d7dfeb; stroke-opacity: 0.9; stroke-width: 0.8; stroke-linecap: square"/>
     </g>
     <g id="line2d_52">
      <g>
       <use xlink:href="#m6903b687be" x="72.576" y="412.284692" style="stroke: #000000; stroke-width: 0.8"/>
      </g>
     </g>
     <g id="text_23">
      <text style="font-size: 10px; font-family: 'Atlas Sans KR'; text-anchor: end" x="65.576" y="416.684692" transform="rotate(-0 65.576 416.684692)">0</text>
     </g>
    </g>
    <g id="ytick_10">
     <g id="line2d_53">
      <path d="M 72.576 373.46998
L 790.272 373.46998
" clip-path="url(#p68ba57476f)" style="fill: none; stroke: #d7dfeb; stroke-opacity: 0.9; stroke-width: 0.8; stroke-linecap: square"/>
     </g>
     <g id="line2d_54">
      <g>
       <use xlink:href="#m6903b687be" x="72.576" y="373.46998" style="stroke: #000000; stroke-width: 0.8"/>
      </g>
     </g>
     <g id="text_24">
      <text style="font-size: 10px; font-family: 'Atlas Sans KR'; text-anchor: end" x="65.576" y="377.86998" transform="rotate(-0 65.576 377.86998)">5</text>
     </g>
    </g>
    <g id="ytick_11">
     <g id="line2d_55">
      <path d="M 72.576 334.655269
L 790.272 334.655269
" clip-path="url(#p68ba57476f)" style="fill: none; stroke: #d7dfeb; stroke-opacity: 0.9; stroke-width: 0.8; stroke-linecap: square"/>
     </g>
     <g id="line2d_56">
      <g>
       <use xlink:href="#m6903b687be" x="72.576" y="334.655269" style="stroke: #000000; stroke-width: 0.8"/>
      </g>
     </g>
     <g id="text_25">
      <text style="font-size: 10px; font-family: 'Atlas Sans KR'; text-anchor: end" x="65.576" y="339.055269" transform="rotate(-0 65.576 339.055269)">10</text>
     </g>
    </g>
    <g id="text_26">
     <text style="font-size: 10px; font-family: 'Atlas Sans KR'; text-anchor: middle" x="45.215062" y="412.284692" transform="rotate(-90 45.215062 412.284692)">정규화 혁신 ν/√S</text>
    </g>
   </g>
   <g id="line2d_57">
    <path d="M 105.198545 417.005987
L 110.635636 400.877745
L 116.072727 408.961182
L 121.509818 404.508716
L 126.946909 406.072769
L 132.384 425.138479
L 137.821091 414.857045
L 143.258182 406.65096
L 148.695273 415.408738
L 154.132364 412.918879
L 159.569455 427.079798
L 165.006545 415.778291
L 170.443636 408.774408
L 175.880727 404.129251
L 181.317818 413.391781
L 186.754909 411.46086
L 192.192 411.98073
L 197.629091 416.236411
L 203.066182 405.722993
L 208.503273 419.731245
L 213.940364 417.624638
L 219.377455 404.86409
L 224.814545 417.391789
L 230.251636 399.439199
L 235.688727 407.917956
L 241.125818 401.521498
L 246.562909 403.917238
L 252 415.264287
L 257.437091 418.285959
L 262.874182 406.29659
L 268.311273 412.433618
L 273.748364 410.587721
L 279.185455 415.424811
L 284.622545 415.664285
L 290.059636 420.348373
L 295.496727 415.735591
L 300.933818 406.016085
L 306.370909 419.454058
L 311.808 420.750842
L 317.245091 391.997127
L 322.682182 415.252611
L 328.119273 412.154257
L 333.556364 395.471672
L 338.993455 421.414477
L 344.430545 411.446088
L 349.867636 412.142855
L 355.304727 412.830889
L 360.741818 412.03751
L 366.178909 403.215477
L 371.616 422.092474
L 377.053091 407.50122
L 382.490182 405.25461
L 387.927273 411.777261
L 393.364364 400.168847
L 398.801455 401.789576
L 404.238545 405.282419
L 409.675636 394.7541
L 415.112727 401.95113
L 420.549818 411.606837
L 425.986909 412.507431
L 431.424 406.117103
L 436.861091 409.471018
L 442.298182 404.628035
L 447.735273 413.732812
L 453.172364 416.943101
L 458.609455 407.52555
L 464.046545 413.556098
L 469.483636 419.852867
L 474.920727 410.853291
L 480.357818 392.003084
L 485.794909 428.55189
L 491.232 420.687719
L 496.669091 413.056899
L 502.106182 409.177219
L 507.543273 418.37867
L 512.980364 415.892187
L 518.417455 401.370993
L 523.854545 416.694519
L 529.291636 414.238341
L 534.728727 416.510455
L 540.165818 406.948715
L 545.602909 413.716427
L 551.04 398.68502
L 556.477091 413.443264
L 561.914182 406.474522
L 567.351273 411.481597
L 572.788364 417.927974
L 578.225455 418.91555
L 583.662545 417.319319
L 589.099636 410.756113
L 594.536727 413.521437
L 599.973818 418.061078
L 605.410909 412.592581
L 610.848 424.000976
L 616.285091 412.618392
L 621.722182 412.809972
L 627.159273 419.028385
L 632.596364 416.23373
L 638.033455 409.267333
L 643.470545 417.2445
L 648.907636 411.320577
L 654.344727 417.714346
L 659.781818 422.791585
L 665.218909 413.94105
L 670.656 405.56071
L 676.093091 407.670245
L 681.530182 416.104107
L 686.967273 417.866052
L 692.404364 414.030015
L 697.841455 413.341067
L 703.278545 404.472352
L 708.715636 418.366497
L 714.152727 416.495573
L 719.589818 408.457381
L 725.026909 418.754022
L 730.464 418.586728
L 735.901091 414.420654
L 741.338182 402.21279
L 746.775273 403.97859
L 752.212364 400.343908
L 757.649455 406.044884
" clip-path="url(#p68ba57476f)" style="fill: none; stroke: #1459b8; stroke-width: 1.8; stroke-linecap: square"/>
    <defs>
     <path id="m7462b2cac0" d="M 0 2.3
C 0.609967 2.3 1.195034 2.057657 1.626346 1.626346
C 2.057657 1.195034 2.3 0.609967 2.3 0
C 2.3 -0.609967 2.057657 -1.195034 1.626346 -1.626346
C 1.195034 -2.057657 0.609967 -2.3 0 -2.3
C -0.609967 -2.3 -1.195034 -2.057657 -1.626346 -1.626346
C -2.057657 -1.195034 -2.3 -0.609967 -2.3 0
C -2.3 0.609967 -2.057657 1.195034 -1.626346 1.626346
C -1.195034 2.057657 -0.609967 2.3 0 2.3
z
" style="stroke: #1459b8"/>
    </defs>
    <g clip-path="url(#p68ba57476f)">
     <use xlink:href="#m7462b2cac0" x="105.198545" y="417.005987" style="fill: #1459b8; stroke: #1459b8"/>
     <use xlink:href="#m7462b2cac0" x="170.443636" y="408.774408" style="fill: #1459b8; stroke: #1459b8"/>
     <use xlink:href="#m7462b2cac0" x="235.688727" y="407.917956" style="fill: #1459b8; stroke: #1459b8"/>
     <use xlink:href="#m7462b2cac0" x="300.933818" y="406.016085" style="fill: #1459b8; stroke: #1459b8"/>
     <use xlink:href="#m7462b2cac0" x="366.178909" y="403.215477" style="fill: #1459b8; stroke: #1459b8"/>
     <use xlink:href="#m7462b2cac0" x="431.424" y="406.117103" style="fill: #1459b8; stroke: #1459b8"/>
     <use xlink:href="#m7462b2cac0" x="496.669091" y="413.056899" style="fill: #1459b8; stroke: #1459b8"/>
     <use xlink:href="#m7462b2cac0" x="561.914182" y="406.474522" style="fill: #1459b8; stroke: #1459b8"/>
     <use xlink:href="#m7462b2cac0" x="627.159273" y="419.028385" style="fill: #1459b8; stroke: #1459b8"/>
     <use xlink:href="#m7462b2cac0" x="692.404364" y="414.030015" style="fill: #1459b8; stroke: #1459b8"/>
     <use xlink:href="#m7462b2cac0" x="757.649455" y="406.044884" style="fill: #1459b8; stroke: #1459b8"/>
    </g>
   </g>
   <g id="line2d_58">
    <path d="M 105.198545 417.005987
L 110.635636 400.876917
L 116.072727 408.955722
L 121.509818 404.485809
L 126.946909 406.006966
L 132.384 425.1017
L 137.821091 414.913691
L 143.258182 406.686736
L 148.695273 415.425688
L 154.132364 412.97631
L 159.569455 427.329615
L 165.006545 416.27118
L 170.443636 409.267279
L 175.880727 404.428343
L 181.317818 413.554142
L 186.754909 411.606699
L 192.192 412.085014
L 197.629091 416.411418
L 203.066182 405.815218
L 208.503273 419.844039
L 213.940364 418.115649
L 219.377455 405.289791
L 224.814545 417.746731
L 230.251636 399.48401
L 235.688727 407.246489
L 241.125818 400.135943
L 246.562909 401.577192
L 252 412.558342
L 257.437091 415.929516
L 262.874182 403.877051
L 268.311273 409.654512
L 273.748364 407.670301
L 279.185455 412.552163
L 284.622545 413.159449
L 290.059636 418.560779
L 295.496727 414.730734
L 300.933818 404.922472
L 306.370909 418.502057
L 311.808 420.928241
L 317.245091 391.490631
L 322.682182 413.61575
L 328.119273 410.706085
L 333.556364 392.810435
L 338.993455 418.132051
L 344.430545 408.678802
L 349.867636 409.265402
L 355.304727 409.951121
L 360.741818 409.158571
L 366.178909 399.610166
L 371.616 418.495131
L 377.053091 404.25659
L 382.490182 401.085817
L 387.927273 406.961414
L 393.364364 394.270518
L 398.801455 393.957796
L 404.238545 395.819811
L 409.675636 383.026682
L 415.112727 387.592391
L 420.549818 395.880996
L 425.986909 396.281907
L 431.424 389.012983
L 436.861091 391.273991
L 442.298182 385.230748
L 447.735273 393.496768
L 453.172364 396.9241
L 458.609455 387.315616
L 464.046545 392.93702
L 469.483636 399.891143
L 474.920727 391.432573
L 480.357818 370.877678
L 485.794909 407.118399
L 491.232 401.37866
L 496.669091 394.767861
L 502.106182 391.025731
L 507.543273 400.821006
L 512.980364 399.532459
L 518.417455 384.849977
L 523.854545 400.045789
L 529.291636 398.520567
L 534.728727 401.76005
L 540.165818 392.594341
L 545.602909 399.517988
L 551.04 383.922318
L 556.477091 398.024774
L 561.914182 390.995069
L 567.351273 395.764363
L 572.788364 402.920482
L 578.225455 405.295159
L 583.662545 405.121192
L 589.099636 399.362479
L 594.536727 402.626418
L 599.973818 408.272896
L 605.410909 403.864801
L 610.848 416.858044
L 616.285091 407.114199
L 621.722182 408.040959
L 627.159273 415.50754
L 632.596364 414.259057
L 638.033455 408.036641
L 643.470545 416.804324
L 648.907636 411.812348
L 654.344727 419.158004
L 659.781818 426.140178
L 665.218909 418.923031
L 670.656 410.734138
L 676.093091 412.414131
L 681.530182 421.190487
L 686.967273 424.109732
L 692.404364 421.269604
L 697.841455 421.191281
L 703.278545 412.092496
L 708.715636 426.095375
L 714.152727 425.300949
L 719.589818 417.524243
L 725.026909 428.234776
L 730.464 429.315532
L 735.901091 426.067347
L 741.338182 413.395934
L 746.775273 413.719936
L 752.212364 408.337873
L 757.649455 412.323236
" clip-path="url(#p68ba57476f)" style="fill: none; stroke-dasharray: 6.66,2.88; stroke-dashoffset: 0; stroke: #b65c00; stroke-width: 1.8"/>
    <defs>
     <path id="m882b22e7b3" d="M 0 -2.3
L -2.3 2.3
L 2.3 2.3
z
" style="stroke: #b65c00; stroke-linejoin: miter"/>
    </defs>
    <g clip-path="url(#p68ba57476f)">
     <use xlink:href="#m882b22e7b3" x="105.198545" y="417.005987" style="fill: #b65c00; stroke: #b65c00; stroke-linejoin: miter"/>
     <use xlink:href="#m882b22e7b3" x="170.443636" y="409.267279" style="fill: #b65c00; stroke: #b65c00; stroke-linejoin: miter"/>
     <use xlink:href="#m882b22e7b3" x="235.688727" y="407.246489" style="fill: #b65c00; stroke: #b65c00; stroke-linejoin: miter"/>
     <use xlink:href="#m882b22e7b3" x="300.933818" y="404.922472" style="fill: #b65c00; stroke: #b65c00; stroke-linejoin: miter"/>
     <use xlink:href="#m882b22e7b3" x="366.178909" y="399.610166" style="fill: #b65c00; stroke: #b65c00; stroke-linejoin: miter"/>
     <use xlink:href="#m882b22e7b3" x="431.424" y="389.012983" style="fill: #b65c00; stroke: #b65c00; stroke-linejoin: miter"/>
     <use xlink:href="#m882b22e7b3" x="496.669091" y="394.767861" style="fill: #b65c00; stroke: #b65c00; stroke-linejoin: miter"/>
     <use xlink:href="#m882b22e7b3" x="561.914182" y="390.995069" style="fill: #b65c00; stroke: #b65c00; stroke-linejoin: miter"/>
     <use xlink:href="#m882b22e7b3" x="627.159273" y="415.50754" style="fill: #b65c00; stroke: #b65c00; stroke-linejoin: miter"/>
     <use xlink:href="#m882b22e7b3" x="692.404364" y="421.269604" style="fill: #b65c00; stroke: #b65c00; stroke-linejoin: miter"/>
     <use xlink:href="#m882b22e7b3" x="757.649455" y="412.323236" style="fill: #b65c00; stroke: #b65c00; stroke-linejoin: miter"/>
    </g>
   </g>
   <g id="line2d_59">
    <path d="M 105.198545 417.556674
L 110.635636 325.172312
L 116.072727 456.879546
L 121.509818 416.77477
L 126.946909 437.495998
L 131.811177 562.6
M 132.900445 562.6
L 137.821091 422.230446
L 143.258182 346.378014
L 148.695273 439.924099
L 154.132364 408.199931
L 159.569455 522.196767
L 165.006545 385.07475
L 170.443636 337.429056
L 175.880727 333.409317
L 181.317818 445.808081
L 186.754909 422.138437
L 192.192 424.537918
L 197.629091 453.347416
L 203.066182 352.11992
L 208.503273 487.325136
L 213.940364 436.707675
L 219.377455 322.869068
L 224.814545 459.753651
L 230.251636 300.845308
L 235.688727 420.008152
L 241.125818 372.75069
L 246.562909 413.59002
L 252 504.152537
L 257.437091 483.800193
L 262.874182 350.344757
L 268.311273 418.839688
L 273.748364 398.200686
L 279.185455 439.534467
L 284.622545 426.703634
L 290.059636 453.274871
L 295.496727 395.184032
L 300.933818 324.749113
L 306.370909 470.490865
L 311.808 457.395332
L 317.245091 213.850263
L 322.682182 488.74831
L 328.119273 438.33973
L 333.556364 299.3757
L 338.993455 554.836432
L 344.430545 414.120569
L 349.867636 413.424117
L 355.304727 413.920067
L 360.741818 403.6132
L 366.178909 337.008689
L 371.616 518.21803
L 377.053091 357.067504
L 382.490182 362.472846
L 387.927273 437.461426
L 393.364364 338.296016
L 398.801455 386.863158
L 404.238545 429.784446
L 409.675636 342.554254
L 415.112727 431.404634
L 420.549818 498.359271
L 425.986909 461.177433
L 431.424 379.295174
L 436.861091 410.795917
L 442.298182 367.492956
L 447.735273 454.218963
L 453.172364 456.559944
L 458.609455 357.57763
L 464.046545 424.659853
L 469.483636 466.053974
L 474.920727 368.619007
L 480.357818 239.989635
L 485.144894 562.6
M 487.432686 562.6
L 491.232 460.979331
L 496.669091 373.536843
L 502.106182 356.509259
L 507.543273 453.512571
L 512.980364 417.096693
L 518.417455 302.566677
L 523.854545 474.77852
L 529.291636 432.272304
L 534.728727 441.275988
L 540.165818 352.922356
L 545.602909 432.385918
L 551.04 308.729286
L 556.477091 473.659798
L 561.914182 395.858862
L 567.351273 442.445659
L 572.788364 477.717869
L 578.225455 451.0739
L 583.662545 413.906379
L 589.099636 356.02848
L 594.536727 400.765802
L 599.973818 442.57746
L 605.410909 387.566283
L 610.848 488.048121
L 616.285091 365.413193
L 621.722182 387.641239
L 627.159273 449.923753
L 632.596364 413.765689
L 638.033455 360.367839
L 643.470545 448.844547
L 648.907636 389.978134
L 654.344727 451.927024
L 659.781818 474.769454
L 665.218909 376.054476
L 670.656 326.029147
L 676.093091 385.290727
L 681.530182 469.928062
L 686.967273 461.584631
L 692.404364 408.758484
L 697.841455 402.937812
L 703.278545 337.835049
L 708.715636 481.589337
L 714.152727 437.909917
L 719.589818 362.410117
L 725.026909 464.383927
L 730.464 439.530207
L 735.901091 392.552572
L 741.338182 305.651342
L 746.775273 371.511717
L 752.212364 369.991529
L 757.649455 441.409602
" clip-path="url(#p68ba57476f)" style="fill: none; stroke-dasharray: 1.8,2.97; stroke-dashoffset: 0; stroke: #a92f49; stroke-width: 1.8"/>
    <defs>
     <path id="m8a3a6062f5" d="M -2.3 2.3
L 2.3 -2.3
M -2.3 -2.3
L 2.3 2.3
" style="stroke: #a92f49"/>
    </defs>
    <g clip-path="url(#p68ba57476f)">
     <use xlink:href="#m8a3a6062f5" x="105.198545" y="417.556674" style="fill: #a92f49; stroke: #a92f49"/>
     <use xlink:href="#m8a3a6062f5" x="170.443636" y="337.429056" style="fill: #a92f49; stroke: #a92f49"/>
     <use xlink:href="#m8a3a6062f5" x="235.688727" y="420.008152" style="fill: #a92f49; stroke: #a92f49"/>
     <use xlink:href="#m8a3a6062f5" x="300.933818" y="324.749113" style="fill: #a92f49; stroke: #a92f49"/>
     <use xlink:href="#m8a3a6062f5" x="366.178909" y="337.008689" style="fill: #a92f49; stroke: #a92f49"/>
     <use xlink:href="#m8a3a6062f5" x="431.424" y="379.295174" style="fill: #a92f49; stroke: #a92f49"/>
     <use xlink:href="#m8a3a6062f5" x="496.669091" y="373.536843" style="fill: #a92f49; stroke: #a92f49"/>
     <use xlink:href="#m8a3a6062f5" x="561.914182" y="395.858862" style="fill: #a92f49; stroke: #a92f49"/>
     <use xlink:href="#m8a3a6062f5" x="627.159273" y="449.923753" style="fill: #a92f49; stroke: #a92f49"/>
     <use xlink:href="#m8a3a6062f5" x="692.404364" y="408.758484" style="fill: #a92f49; stroke: #a92f49"/>
     <use xlink:href="#m8a3a6062f5" x="757.649455" y="441.409602" style="fill: #a92f49; stroke: #a92f49"/>
    </g>
   </g>
   <g id="line2d_60">
    <path d="M 72.576 388.995865
L 790.272 388.995865
" clip-path="url(#p68ba57476f)" style="fill: none; stroke-dasharray: 4.44,1.92; stroke-dashoffset: 0; stroke: #34415a; stroke-width: 1.2"/>
   </g>
   <g id="line2d_61">
    <path d="M 72.576 435.573519
L 790.272 435.573519
" clip-path="url(#p68ba57476f)" style="fill: none; stroke-dasharray: 4.44,1.92; stroke-dashoffset: 0; stroke: #34415a; stroke-width: 1.2"/>
   </g>
   <g id="patch_6">
    <path d="M 72.576 505.44
L 72.576 319.129384
" style="fill: none; stroke: #5b6578; stroke-width: 0.8; stroke-linejoin: miter; stroke-linecap: square"/>
   </g>
   <g id="patch_7">
    <path d="M 72.576 505.44
L 790.272 505.44
" style="fill: none; stroke: #5b6578; stroke-width: 0.8; stroke-linejoin: miter; stroke-linecap: square"/>
   </g>
   <g id="text_27">
    <text style="font-size: 9px; font-family: 'Atlas Sans KR'; text-anchor: end; fill: #34415a" x="757.649455" y="385.198835" transform="rotate(-0 757.649455 385.198835)">+3 기준</text>
   </g>
   <g id="text_28">
    <text style="font-weight: 700; font-size: 12px; font-family: 'Atlas Sans KR'; text-anchor: start" x="72.576" y="313.129384" transform="rotate(-0 72.576 313.129384)">B · Q 또는 R을 과소평가하면 같은 잔차도 예상 범위를 반복해서 벗어난다</text>
   </g>
   <g id="legend_2">
    <g id="line2d_62">
     <path d="M 81.576 333.429384
L 91.576 333.429384
L 101.576 333.429384
" style="fill: none; stroke: #1459b8; stroke-width: 1.8; stroke-linecap: square"/>
     <g>
      <use xlink:href="#m7462b2cac0" x="91.576" y="333.429384" style="fill: #1459b8; stroke: #1459b8"/>
     </g>
    </g>
    <g id="text_29">
     <text style="font-size: 10px; font-family: 'Atlas Sans KR'; text-anchor: start" x="109.576" y="336.929384" transform="rotate(-0 109.576 336.929384)">기준 Q, R</text>
    </g>
    <g id="line2d_63">
     <path d="M 169.00725 333.429384
L 179.00725 333.429384
L 189.00725 333.429384
" style="fill: none; stroke-dasharray: 6.66,2.88; stroke-dashoffset: 0; stroke: #b65c00; stroke-width: 1.8"/>
     <g>
      <use xlink:href="#m882b22e7b3" x="179.00725" y="333.429384" style="fill: #b65c00; stroke: #b65c00; stroke-linejoin: miter"/>
     </g>
    </g>
    <g id="text_30">
     <text style="font-size: 10px; font-family: 'Atlas Sans KR'; text-anchor: start" x="197.00725" y="336.929384" transform="rotate(-0 197.00725 336.929384)">Q를 100배 작게</text>
    </g>
    <g id="line2d_64">
     <path d="M 282.358812 333.429384
L 292.358812 333.429384
L 302.358812 333.429384
" style="fill: none; stroke-dasharray: 1.8,2.97; stroke-dashoffset: 0; stroke: #a92f49; stroke-width: 1.8"/>
     <g>
      <use xlink:href="#m8a3a6062f5" x="292.358812" y="333.429384" style="fill: #a92f49; stroke: #a92f49"/>
     </g>
    </g>
    <g id="text_31">
     <text style="font-size: 10px; font-family: 'Atlas Sans KR'; text-anchor: start" x="310.358812" y="336.929384" transform="rotate(-0 310.358812 336.929384)">R을 100배 작게</text>
    </g>
   </g>
  </g>
  <g id="text_32">
   <text style="font-weight: 700; font-size: 16px; font-family: 'Atlas Sans KR'; text-anchor: start; fill: #172033" x="56.448" y="22.504" transform="rotate(-0 56.448 22.504)">예측을 따로 그리면 지연이 보이고, 혁신을 정규화하면 잘못된 공분산이 보인다</text>
  </g>
  <g id="text_33">
   <text style="font-size: 9px; font-family: 'Atlas Sans KR'; text-anchor: start; fill: #5b6578" x="56.448" y="557.1072" transform="rotate(-0 56.448 557.1072)">교육용 합성 자료 · Δt=0.1 s · 위치 측정분산 R=0.25 m² · 난수 씨앗=20260716 · Q/R 배율만 변경</text>
  </g>
 </g>
 <defs>
  <clipPath id="p8f2026559a">
   <rect x="72.576" y="50.544" width="717.696" height="219.846527"/>
  </clipPath>
  <clipPath id="p68ba57476f">
   <rect x="72.576" y="319.129384" width="717.696" height="186.310616"/>
  </clipPath>
 </defs>
</svg>
