<?xml version="1.0" encoding="utf-8" standalone="no"?>
<!DOCTYPE svg PUBLIC "-//W3C//DTD SVG 1.1//EN"
  "http://www.w3.org/Graphics/SVG/1.1/DTD/svg11.dtd">
<svg xmlns:xlink="http://www.w3.org/1999/xlink" width="449.64pt" height="350.343322pt" viewBox="0 0 449.64 350.343322" xmlns="http://www.w3.org/2000/svg" version="1.1" role="img" aria-labelledby="jacobian-2r-geometry-title jacobian-2r-geometry-desc">
  <title id="jacobian-2r-geometry-title">2R 평면팔의 기하 정의</title>
  <desc id="jacobian-2r-geometry-desc">기준좌표계 0의 원점에서 길이 0.4미터인 링크 1이 관절각 30도로 뻗어 관절 2에 닿고, 길이 0.3미터인 링크 2가 링크 1에 대한 상대각 60도로 이어져 말단 p에 닿는다. 관절각 q1은 x축에서, q2는 링크 1의 연장선에서 잰다.</desc>
 <metadata>
  <rdf:RDF xmlns:dc="http://purl.org/dc/elements/1.1/" xmlns:cc="http://creativecommons.org/ns#" xmlns:rdf="http://www.w3.org/1999/02/22-rdf-syntax-ns#">
   <cc:Work>
    <dc:type rdf:resource="http://purl.org/dc/dcmitype/StillImage"/>
    <dc:date>2026-07-19T14:13:52.784161</dc:date>
    <dc:format>image/svg+xml</dc:format>
    <dc:creator>
     <cc:Agent>
      <dc:title>Matplotlib v3.11.1, https://matplotlib.org/</dc:title>
     </cc:Agent>
    </dc:creator>
   </cc:Work>
  </rdf:RDF>
 </metadata>
 <defs>
  <style type="text/css">*{stroke-linejoin: round; stroke-linecap: butt}</style>
 </defs>
 <g id="figure_1">
  <g id="patch_1">
   <path d="M 0 350.343322 
L 449.64 350.343322 
L 449.64 -0 
L 0 -0 
z
" style="fill: #fbfcfe"/>
  </g>
  <g id="axes_1">
   <g id="patch_2">
    <path d="M 7.2 343.143322 
L 442.44 343.143322 
L 442.44 29.456836 
L 7.2 29.456836 
z
" style="fill: #fbfcfe"/>
   </g>
   <g id="line2d_1">
    <path d="M 205.76753 217.668728 
L 263.495379 184.339539 
" clip-path="url(#p06a57a1632)" style="fill: none; stroke-dasharray: 1.1,1.815; stroke-dashoffset: 0; stroke: #5b6578; stroke-width: 1.1"/>
   </g>
   <g id="matplotlib.axis_1"/>
   <g id="matplotlib.axis_2"/>
   <g id="line2d_2">
    <path d="M 69.937297 296.090349 
L 205.76753 217.668728 
" clip-path="url(#p06a57a1632)" style="fill: none; stroke: #34415a; stroke-width: 6.5; stroke-linecap: round"/>
   </g>
   <g id="line2d_3">
    <path d="M 205.76753 217.668728 
L 205.76753 100.036295 
" clip-path="url(#p06a57a1632)" style="fill: none; stroke: #34415a; stroke-width: 6.5; stroke-linecap: round"/>
   </g>
   <g id="patch_3">
    <path d="M 116.99027 296.090349 
C 116.99027 291.978349 116.451243 287.884032 115.386979 283.912144 
C 114.322715 279.940256 112.742368 276.12496 110.686367 272.563863 
" clip-path="url(#p06a57a1632)" style="fill: none; stroke: #1459b8; stroke-width: 1.8; stroke-linejoin: miter"/>
   </g>
   <g id="patch_4">
    <path d="M 239.725089 198.063322 
C 236.283877 192.10297 231.333288 187.152381 225.372936 183.71117 
C 219.412583 180.269958 212.649953 178.457917 205.76753 178.457917 
" clip-path="url(#p06a57a1632)" style="fill: none; stroke: #087f78; stroke-width: 1.8; stroke-linejoin: miter"/>
   </g>
   <g id="patch_5">
    <path d="M 32.729627 296.090349 
Q 171.888235 296.090349 309.481595 296.090349 
" style="fill: none; stroke: #5b6578; stroke-width: 1.4; stroke-linecap: round"/>
    <path d="M 305.481595 294.090349 
L 309.481595 296.090349 
L 305.481595 298.090349 
z
" style="fill: #5b6578; stroke: #5b6578; stroke-width: 1.4; stroke-linecap: round"/>
   </g>
   <g id="patch_6">
    <path d="M 69.937297 325.461243 
Q 69.937297 190.222205 69.937297 56.548416 
" style="fill: none; stroke: #5b6578; stroke-width: 1.4; stroke-linecap: round"/>
    <path d="M 67.937297 60.548416 
L 69.937297 56.548416 
L 71.937297 60.548416 
z
" style="fill: #5b6578; stroke: #5b6578; stroke-width: 1.4; stroke-linecap: round"/>
   </g>
   <g id="text_1">
    <text style="font-size: 12px; font-family: 'Noto Sans CJK KR'; text-anchor: start; fill: #5b6578" x="316.965405" y="311.089159" transform="rotate(-0 316.965405 311.089159)">x</text>
   </g>
   <g id="text_2">
    <text style="font-size: 12px; font-family: 'Noto Sans CJK KR'; text-anchor: end; fill: #5b6578" x="62.879351" y="49.062241" transform="rotate(-0 62.879351 49.062241)">y</text>
   </g>
   <g id="text_3">
    <text style="font-size: 10.5px; font-family: 'Noto Sans CJK KR'; text-anchor: start; fill: #5b6578" x="81.700541" y="317.656295" transform="rotate(-0 81.700541 317.656295)">기준좌표계 {0} 원점</text>
   </g>
   <g id="PathCollection_1">
    <defs>
     <path id="m8843e86196" d="M 0 5.91608 
C 1.568963 5.91608 3.073876 5.292724 4.1833 4.1833 
C 5.292724 3.073876 5.91608 1.568963 5.91608 0 
C 5.91608 -1.568963 5.292724 -3.073876 4.1833 -4.1833 
C 3.073876 -5.292724 1.568963 -5.91608 0 -5.91608 
C -1.568963 -5.91608 -3.073876 -5.292724 -4.1833 -4.1833 
C -5.292724 -3.073876 -5.91608 -1.568963 -5.91608 0 
C -5.91608 1.568963 -5.292724 3.073876 -4.1833 4.1833 
C -3.073876 5.292724 -1.568963 5.91608 0 5.91608 
z
" style="stroke: #172033; stroke-width: 1.8"/>
    </defs>
    <g clip-path="url(#p06a57a1632)">
     <use xlink:href="#m8843e86196" x="69.937297" y="296.090349" style="fill: #fbfcfe; stroke: #172033; stroke-width: 1.8"/>
    </g>
   </g>
   <g id="PathCollection_2">
    <g clip-path="url(#p06a57a1632)">
     <use xlink:href="#m8843e86196" x="205.76753" y="217.668728" style="fill: #fbfcfe; stroke: #172033; stroke-width: 1.8"/>
    </g>
   </g>
   <g id="PathCollection_3">
    <defs>
     <path id="m66b15b85b8" d="M 0 4.743416 
C 1.257969 4.743416 2.464584 4.24362 3.354102 3.354102 
C 4.24362 2.464584 4.743416 1.257969 4.743416 0 
C 4.743416 -1.257969 4.24362 -2.464584 3.354102 -3.354102 
C 2.464584 -4.24362 1.257969 -4.743416 0 -4.743416 
C -1.257969 -4.743416 -2.464584 -4.24362 -3.354102 -3.354102 
C -4.24362 -2.464584 -4.743416 -1.257969 -4.743416 0 
C -4.743416 1.257969 -4.24362 2.464584 -3.354102 3.354102 
C -2.464584 4.24362 -1.257969 4.743416 0 4.743416 
z
" style="stroke: #172033; stroke-width: 1.2"/>
    </defs>
    <g clip-path="url(#p06a57a1632)">
     <use xlink:href="#m66b15b85b8" x="205.76753" y="100.036295" style="fill: #955000; stroke: #172033; stroke-width: 1.2"/>
    </g>
   </g>
   <g id="text_4">
    <text style="font-weight: 700; font-size: 12.5px; font-family: 'Noto Sans CJK KR'; text-anchor: start; fill: #1459b8" x="126.792973" y="283.150782" transform="rotate(-0 126.792973 283.150782)">q₁</text>
   </g>
   <g id="text_5">
    <text style="font-weight: 700; font-size: 12.5px; font-family: 'Noto Sans CJK KR'; text-anchor: start; fill: #087f78" x="250.859963" y="184.339539" transform="rotate(-0 250.859963 184.339539)">q₂</text>
   </g>
   <g id="text_6">
    <text style="font-size: 11.5px; font-family: 'Noto Sans CJK KR'; text-anchor: start; fill: #172033" x="148.831441" y="274.524404" transform="rotate(-0 148.831441 274.524404)">l₁ = 0.4 m</text>
   </g>
   <g id="text_7">
    <text style="font-size: 11.5px; font-family: 'Noto Sans CJK KR'; text-anchor: start; fill: #172033" x="216.746557" y="158.852512" transform="rotate(-0 216.746557 158.852512)">l₂ = 0.3 m</text>
   </g>
   <g id="text_8">
    <text style="font-size: 10.5px; font-family: 'Noto Sans CJK KR'; text-anchor: start; fill: #172033" x="221.451855" y="235.44897" transform="rotate(-0 221.451855 235.44897)">관절 2</text>
   </g>
   <g id="text_9">
    <text style="font-size: 11.5px; font-family: 'Noto Sans CJK KR'; text-anchor: start; fill: #172033" x="219.491314" y="95.330998" transform="rotate(-0 219.491314 95.330998)">말단 p = (x, y)</text>
   </g>
   <g id="text_10">
    <text style="font-size: 10px; font-family: 'Noto Sans CJK KR'; text-anchor: start; fill: #5b6578" x="274.386449" y="204.72916" transform="rotate(-0 274.386449 204.72916)">q₂는 링크 1에 대한 상대각</text>
   </g>
   <g id="text_11">
    <text style="font-size: 13.5px; font-family: 'Noto Sans CJK KR'; text-anchor: start; fill: #172033" x="7.2" y="17.456836" transform="rotate(-0 7.2 17.456836)">2R 평면팔의 기하: 두 회전관절과 링크 길이</text>
   </g>
  </g>
 </g>
 <defs>
  <clipPath id="p06a57a1632">
   <rect x="7.2" y="29.456836" width="435.24" height="313.686486"/>
  </clipPath>
 </defs>
</svg>
